  0
SECTION
  2
BLOCKS
  0
ENDSEC
  0
SECTION
  2
ENTITIES
  0
LINE
  8
0
 10
205
 20
-19.9878
 11
205.698
 21
-19.9878
  0
LINE
  8
0
 10
205.698
 20
-19.9878
 11
207.091
 21
-19.8904
  0
LINE
  8
0
 10
207.091
 20
-19.8904
 11
208.473
 21
-19.6962
  0
LINE
  8
0
 10
208.473
 20
-19.6962
 11
209.838
 21
-19.4059
  0
LINE
  8
0
 10
209.838
 20
-19.4059
 11
211.18
 21
-19.0211
  0
LINE
  8
0
 10
211.18
 20
-19.0211
 11
212.492
 21
-18.5437
  0
LINE
  8
0
 10
212.492
 20
-18.5437
 11
213.767
 21
-17.9759
  0
LINE
  8
0
 10
213.767
 20
-17.9759
 11
215
 21
-17.3205
  0
LINE
  8
0
 10
215
 20
-17.3205
 11
216.184
 21
-16.5807
  0
LINE
  8
0
 10
216.184
 20
-16.5807
 11
217.313
 21
-15.7602
  0
LINE
  8
0
 10
217.313
 20
-15.7602
 11
218.383
 21
-14.8629
  0
LINE
  8
0
 10
218.383
 20
-14.8629
 11
219.387
 21
-13.8932
  0
LINE
  8
0
 10
219.387
 20
-13.8932
 11
220.321
 21
-12.8557
  0
LINE
  8
0
 10
220.321
 20
-12.8557
 11
221.18
 21
-11.7557
  0
LINE
  8
0
 10
221.18
 20
-11.7557
 11
221.961
 21
-10.5984
  0
LINE
  8
0
 10
221.961
 20
-10.5984
 11
222.659
 21
-9.38942
  0
LINE
  8
0
 10
222.659
 20
-9.38942
 11
223.271
 21
-8.13472
  0
LINE
  8
0
 10
223.271
 20
-8.13472
 11
223.794
 21
-6.84039
  0
LINE
  8
0
 10
223.794
 20
-6.84039
 11
224.225
 21
-5.51274
  0
LINE
  8
0
 10
224.225
 20
-5.51274
 11
224.563
 21
-4.15823
  0
LINE
  8
0
 10
224.563
 20
-4.15823
 11
224.805
 21
-2.78345
  0
LINE
  8
0
 10
224.805
 20
-2.78345
 11
224.951
 21
-1.39513
  0
LINE
  8
0
 10
224.951
 20
-1.39513
 11
225
 21
0
  0
LINE
  8
0
 10
225
 20
0
 11
224.951
 21
1.39513
  0
LINE
  8
0
 10
224.951
 20
1.39513
 11
224.805
 21
2.78345
  0
LINE
  8
0
 10
224.805
 20
2.78345
 11
224.563
 21
4.15823
  0
LINE
  8
0
 10
224.563
 20
4.15823
 11
224.225
 21
5.51274
  0
LINE
  8
0
 10
224.225
 20
5.51274
 11
223.794
 21
6.84039
  0
LINE
  8
0
 10
223.794
 20
6.84039
 11
223.271
 21
8.13472
  0
LINE
  8
0
 10
223.271
 20
8.13472
 11
222.659
 21
9.38942
  0
LINE
  8
0
 10
222.659
 20
9.38942
 11
221.961
 21
10.5984
  0
LINE
  8
0
 10
221.961
 20
10.5984
 11
221.18
 21
11.7557
  0
LINE
  8
0
 10
221.18
 20
11.7557
 11
220.321
 21
12.8557
  0
LINE
  8
0
 10
220.321
 20
12.8557
 11
219.387
 21
13.8932
  0
LINE
  8
0
 10
219.387
 20
13.8932
 11
218.383
 21
14.8629
  0
LINE
  8
0
 10
218.383
 20
14.8629
 11
217.313
 21
15.7602
  0
LINE
  8
0
 10
217.313
 20
15.7602
 11
216.184
 21
16.5807
  0
LINE
  8
0
 10
216.184
 20
16.5807
 11
215
 21
17.3205
  0
LINE
  8
0
 10
215
 20
17.3205
 11
213.767
 21
17.9759
  0
LINE
  8
0
 10
213.767
 20
17.9759
 11
212.492
 21
18.5437
  0
LINE
  8
0
 10
212.492
 20
18.5437
 11
211.18
 21
19.0211
  0
LINE
  8
0
 10
211.18
 20
19.0211
 11
209.838
 21
19.4059
  0
LINE
  8
0
 10
209.838
 20
19.4059
 11
208.473
 21
19.6962
  0
LINE
  8
0
 10
208.473
 20
19.6962
 11
207.091
 21
19.8904
  0
LINE
  8
0
 10
207.091
 20
19.8904
 11
205.698
 21
19.9878
  0
LINE
  8
0
 10
205.698
 20
19.9878
 11
205
 21
19.9878
  0
LINE
  8
0
 10
205
 20
19.9878
 11
205
 21
20
  0
LINE
  8
0
 10
205
 20
20
 11
-205
 21
20
  0
LINE
  8
0
 10
-205
 20
20
 11
-205
 21
19.9878
  0
LINE
  8
0
 10
-205
 20
19.9878
 11
-205.698
 21
19.9878
  0
LINE
  8
0
 10
-205.698
 20
19.9878
 11
-207.091
 21
19.8904
  0
LINE
  8
0
 10
-207.091
 20
19.8904
 11
-208.473
 21
19.6962
  0
LINE
  8
0
 10
-208.473
 20
19.6962
 11
-209.838
 21
19.4059
  0
LINE
  8
0
 10
-209.838
 20
19.4059
 11
-211.18
 21
19.0211
  0
LINE
  8
0
 10
-211.18
 20
19.0211
 11
-212.492
 21
18.5437
  0
LINE
  8
0
 10
-212.492
 20
18.5437
 11
-213.767
 21
17.9759
  0
LINE
  8
0
 10
-213.767
 20
17.9759
 11
-215
 21
17.3205
  0
LINE
  8
0
 10
-215
 20
17.3205
 11
-216.184
 21
16.5807
  0
LINE
  8
0
 10
-216.184
 20
16.5807
 11
-217.313
 21
15.7602
  0
LINE
  8
0
 10
-217.313
 20
15.7602
 11
-218.383
 21
14.8629
  0
LINE
  8
0
 10
-218.383
 20
14.8629
 11
-219.387
 21
13.8932
  0
LINE
  8
0
 10
-219.387
 20
13.8932
 11
-220.321
 21
12.8557
  0
LINE
  8
0
 10
-220.321
 20
12.8557
 11
-221.18
 21
11.7557
  0
LINE
  8
0
 10
-221.18
 20
11.7557
 11
-221.961
 21
10.5984
  0
LINE
  8
0
 10
-221.961
 20
10.5984
 11
-222.659
 21
9.38942
  0
LINE
  8
0
 10
-222.659
 20
9.38942
 11
-223.271
 21
8.13472
  0
LINE
  8
0
 10
-223.271
 20
8.13472
 11
-223.794
 21
6.84039
  0
LINE
  8
0
 10
-223.794
 20
6.84039
 11
-224.225
 21
5.51274
  0
LINE
  8
0
 10
-224.225
 20
5.51274
 11
-224.563
 21
4.15823
  0
LINE
  8
0
 10
-224.563
 20
4.15823
 11
-224.805
 21
2.78345
  0
LINE
  8
0
 10
-224.805
 20
2.78345
 11
-224.951
 21
1.39513
  0
LINE
  8
0
 10
-224.951
 20
1.39513
 11
-225
 21
0
  0
LINE
  8
0
 10
-225
 20
0
 11
-224.951
 21
-1.39513
  0
LINE
  8
0
 10
-224.951
 20
-1.39513
 11
-224.805
 21
-2.78345
  0
LINE
  8
0
 10
-224.805
 20
-2.78345
 11
-224.563
 21
-4.15823
  0
LINE
  8
0
 10
-224.563
 20
-4.15823
 11
-224.225
 21
-5.51274
  0
LINE
  8
0
 10
-224.225
 20
-5.51274
 11
-223.794
 21
-6.84039
  0
LINE
  8
0
 10
-223.794
 20
-6.84039
 11
-223.271
 21
-8.13472
  0
LINE
  8
0
 10
-223.271
 20
-8.13472
 11
-222.659
 21
-9.38942
  0
LINE
  8
0
 10
-222.659
 20
-9.38942
 11
-221.961
 21
-10.5984
  0
LINE
  8
0
 10
-221.961
 20
-10.5984
 11
-221.18
 21
-11.7557
  0
LINE
  8
0
 10
-221.18
 20
-11.7557
 11
-220.321
 21
-12.8557
  0
LINE
  8
0
 10
-220.321
 20
-12.8557
 11
-219.387
 21
-13.8932
  0
LINE
  8
0
 10
-219.387
 20
-13.8932
 11
-218.383
 21
-14.8629
  0
LINE
  8
0
 10
-218.383
 20
-14.8629
 11
-217.313
 21
-15.7602
  0
LINE
  8
0
 10
-217.313
 20
-15.7602
 11
-216.184
 21
-16.5807
  0
LINE
  8
0
 10
-216.184
 20
-16.5807
 11
-215
 21
-17.3205
  0
LINE
  8
0
 10
-215
 20
-17.3205
 11
-213.767
 21
-17.9759
  0
LINE
  8
0
 10
-213.767
 20
-17.9759
 11
-212.492
 21
-18.5437
  0
LINE
  8
0
 10
-212.492
 20
-18.5437
 11
-211.18
 21
-19.0211
  0
LINE
  8
0
 10
-211.18
 20
-19.0211
 11
-209.838
 21
-19.4059
  0
LINE
  8
0
 10
-209.838
 20
-19.4059
 11
-208.473
 21
-19.6962
  0
LINE
  8
0
 10
-208.473
 20
-19.6962
 11
-207.091
 21
-19.8904
  0
LINE
  8
0
 10
-207.091
 20
-19.8904
 11
-205.698
 21
-19.9878
  0
LINE
  8
0
 10
-205.698
 20
-19.9878
 11
-205
 21
-19.9878
  0
LINE
  8
0
 10
-205
 20
-19.9878
 11
-205
 21
-20
  0
LINE
  8
0
 10
-205
 20
-20
 11
205
 21
-20
  0
LINE
  8
0
 10
205
 20
-20
 11
205
 21
-19.9878
  0
LINE
  8
0
 10
-205
 20
-10
 11
-205
 21
10
  0
LINE
  8
0
 10
-205
 20
10
 11
-195
 21
10
  0
LINE
  8
0
 10
-195
 20
10
 11
-195
 21
-10
  0
LINE
  8
0
 10
-195
 20
-10
 11
-205
 21
-10
  0
LINE
  8
0
 10
-105
 20
-10
 11
-105
 21
10
  0
LINE
  8
0
 10
-105
 20
10
 11
-95
 21
10
  0
LINE
  8
0
 10
-95
 20
10
 11
-95
 21
-10
  0
LINE
  8
0
 10
-95
 20
-10
 11
-105
 21
-10
  0
LINE
  8
0
 10
-5
 20
-10
 11
-5
 21
10
  0
LINE
  8
0
 10
-5
 20
10
 11
5
 21
10
  0
LINE
  8
0
 10
5
 20
10
 11
5
 21
-10
  0
LINE
  8
0
 10
5
 20
-10
 11
-5
 21
-10
  0
LINE
  8
0
 10
95
 20
-10
 11
95
 21
10
  0
LINE
  8
0
 10
95
 20
10
 11
105
 21
10
  0
LINE
  8
0
 10
105
 20
10
 11
105
 21
-10
  0
LINE
  8
0
 10
105
 20
-10
 11
95
 21
-10
  0
LINE
  8
0
 10
195
 20
-10
 11
195
 21
10
  0
LINE
  8
0
 10
195
 20
10
 11
205
 21
10
  0
LINE
  8
0
 10
205
 20
10
 11
205
 21
-10
  0
LINE
  8
0
 10
205
 20
-10
 11
195
 21
-10
  0
ENDSEC
  0
SECTION
  2
OBJECTS
  0
DICTIONARY
  0
ENDSEC
  0
EOF
